<svg xmlns="http://www.w3.org/2000/svg" viewBox="0 0 360 400" role="img" aria-labelledby="title desc">
  <title id="title">Hayked General Trading PLC</title><desc id="desc">Three turquoise arrows surrounding the letter H above the company name.</desc>
  <defs><linearGradient id="g" x1="0" y1="0" x2="1" y2="1"><stop stop-color="#2DE0DB"/><stop offset="1" stop-color="#0AA6B1"/></linearGradient></defs>
  <rect width="360" height="400" rx="32" fill="#061B34"/>
  <g transform="translate(120 42)">
    <circle cx="60" cy="60" r="55" fill="#061B34"/>
    <g fill="none" stroke="url(#g)" stroke-width="10" stroke-linecap="round"><path d="M31 44A37 37 0 0 1 72 25"/><path d="M91 45A37 37 0 0 1 86 82"/><path d="M73 95A37 37 0 0 1 31 76"/></g>
    <g fill="#27D4D0"><path d="M69 14l18 9-16 12z"/><path d="M99 77l-4 20-15-14z"/><path d="M31 88l-18-10 17-11z"/></g>
    <circle cx="60" cy="60" r="23" fill="#082442" stroke="#2DE0DB" stroke-width="2"/><path d="M48 44v32h8V64h8v12h8V44h-8v12h-8V44z" fill="#fff"/>
  </g>
  <text x="180" y="260" text-anchor="middle" fill="#fff" font-family="Arial, Helvetica, sans-serif" font-size="31" font-weight="800" letter-spacing="1">HAYKED GENERAL</text>
  <text x="180" y="304" text-anchor="middle" fill="#2DE0DB" font-family="Arial, Helvetica, sans-serif" font-size="15" font-weight="700" letter-spacing="7">TRADING PLC</text>
</svg>
